<svg width="38" height="31" viewBox="0 0 38 31" fill="none" xmlns="http://www.w3.org/2000/svg">
<path fill-rule="evenodd" clip-rule="evenodd" d="M2 10.9007C2 5.8731 6.46914 2 11.7114 2C14.4137 2 16.7934 3.25131 18.5 4.87131C20.2066 3.25131 22.5845 2 25.2886 2C30.5309 2 35 5.8731 35 10.9007C35 14.3455 33.5122 17.3732 31.4511 19.9354C29.3957 22.4902 26.7029 24.6595 24.127 26.4229C23.1407 27.097 22.147 27.717 21.2343 28.1751C20.3801 28.6052 19.3957 29 18.5 29C17.6043 29 16.6218 28.6052 15.7657 28.1751C14.7645 27.6538 13.7989 27.0684 12.8749 26.4229C10.2971 24.6595 7.60623 22.4902 5.54891 19.9354C3.48783 17.3732 2 14.3455 2 10.9007Z" fill="#FF4B4B"/>
</svg>
