<svg width="36" height="36" viewBox="0 0 36 36" fill="none" xmlns="http://www.w3.org/2000/svg">
<g clip-path="url(#clip0_11_15)">
<path d="M18 8L11 0H0L14 17L25.521 12.25L18 8Z" fill="#55ACEE"/>
<path d="M25 0L18 8L23.39 15.312L24.617 13.823L36 0H25Z" fill="#3B88C3"/>
<path d="M23.26 16.026C23.34 15.809 23.391 15.578 23.391 15.333C23.391 14.8026 23.1803 14.2939 22.8052 13.9188C22.4301 13.5437 21.9214 13.333 21.391 13.333H14.724C14.1936 13.333 13.6849 13.5437 13.3098 13.9188C12.9347 14.2939 12.724 14.8026 12.724 15.333C12.724 15.578 12.774 15.809 12.855 16.026C9.59699 17.852 7.39099 21.333 7.39099 25.333C7.39099 31.224 12.166 36 18.058 36C23.949 36 28.725 31.224 28.725 25.333C28.724 21.333 26.519 17.852 23.26 16.026Z" fill="#FFAC33"/>
<path d="M18.058 33.333C22.4763 33.333 26.058 29.7513 26.058 25.333C26.058 20.9147 22.4763 17.333 18.058 17.333C13.6397 17.333 10.058 20.9147 10.058 25.333C10.058 29.7513 13.6397 33.333 18.058 33.333Z" fill="#FFD983"/>
<path d="M21.2779 30.634C21.1323 30.6337 20.9903 30.5879 20.8719 30.503L17.9999 28.444L15.1289 30.503C15.01 30.5885 14.8671 30.6343 14.7207 30.634C14.5742 30.6336 14.4315 30.5871 14.313 30.5011C14.1944 30.4151 14.1059 30.2939 14.0602 30.1548C14.0144 30.0156 14.0136 29.8656 14.0579 29.726L15.1289 26.27L12.2839 24.265C12.1663 24.1779 12.079 24.0561 12.0344 23.9167C11.9898 23.7774 11.9902 23.6275 12.0354 23.4883C12.0806 23.3491 12.1684 23.2277 12.2864 23.1411C12.4044 23.0546 12.5466 23.0073 12.6929 23.006L16.2169 23.001L17.3389 19.631C17.3849 19.4917 17.4736 19.3704 17.5924 19.2844C17.7113 19.1984 17.8542 19.1521 18.0009 19.1521C18.1477 19.1521 18.2906 19.1984 18.4095 19.2844C18.5283 19.3704 18.617 19.4917 18.6629 19.631L19.7659 23.001L23.3079 23.006C23.4546 23.0067 23.5973 23.0536 23.7157 23.1401C23.8341 23.2266 23.9223 23.3482 23.9676 23.4876C24.0129 23.6271 24.0131 23.7773 23.9681 23.9169C23.9231 24.0565 23.8352 24.1783 23.7169 24.265L20.8709 26.27L21.9419 29.726C21.9756 29.8305 21.984 29.9414 21.9665 30.0497C21.949 30.158 21.9062 30.2607 21.8414 30.3493C21.7766 30.4378 21.6918 30.5098 21.5939 30.5593C21.4959 30.6088 21.3877 30.6344 21.2779 30.634Z" fill="#FFAC33"/>
</g>
<defs>
<clipPath id="clip0_11_15">
<rect width="36" height="36" fill="white"/>
</clipPath>
</defs>
</svg>
