<svg width="36" height="33" viewBox="0 0 36 33" fill="none" xmlns="http://www.w3.org/2000/svg">
<g filter="url(#filter0_i_11_21)">
<path d="M16.6117 15.2429C16.6117 14.9694 16.7302 14.7071 16.9412 14.5137C17.1522 14.3203 17.4383 14.2117 17.7367 14.2117H32.3954C32.6938 14.2117 32.98 14.3203 33.1909 14.5137C33.4019 14.7071 33.5204 14.9694 33.5204 15.2429V29.8093C33.5204 30.0828 33.4019 30.3451 33.1909 30.5385C32.98 30.7319 32.6938 30.8406 32.3954 30.8406H17.7367C17.4383 30.8406 17.1522 30.7319 16.9412 30.5385C16.7302 30.3451 16.6117 30.0828 16.6117 29.8093V15.2429Z" fill="url(#paint0_linear_11_21)"/>
<path d="M16.6117 15.2429C16.6117 14.9694 16.7302 14.7071 16.9412 14.5137C17.1522 14.3203 17.4383 14.2117 17.7367 14.2117H32.3954C32.6938 14.2117 32.98 14.3203 33.1909 14.5137C33.4019 14.7071 33.5204 14.9694 33.5204 15.2429V29.8093C33.5204 30.0828 33.4019 30.3451 33.1909 30.5385C32.98 30.7319 32.6938 30.8406 32.3954 30.8406H17.7367C17.4383 30.8406 17.1522 30.7319 16.9412 30.5385C16.7302 30.3451 16.6117 30.0828 16.6117 29.8093V15.2429Z" fill="url(#paint1_radial_11_21)"/>
</g>
<g filter="url(#filter1_i_11_21)">
<path d="M20.2679 16.6445C20.2679 16.5078 20.2087 16.3766 20.1032 16.2799C19.9977 16.1832 19.8546 16.1289 19.7054 16.1289C19.5563 16.1289 19.4132 16.1832 19.3077 16.2799C19.2022 16.3766 19.1429 16.5078 19.1429 16.6445H20.2679ZM30.7788 16.6445C30.7788 16.5078 30.7196 16.3766 30.6141 16.2799C30.5086 16.1832 30.3655 16.1289 30.2163 16.1289C30.0671 16.1289 29.9241 16.1832 29.8186 16.2799C29.7131 16.3766 29.6538 16.5078 29.6538 16.6445H30.7788ZM20.2679 18.8524V16.6456H19.1429V18.8524H20.2679ZM29.6538 16.6456V18.8524H30.7788V16.6456H29.6538ZM24.9603 23.4931C22.4291 23.4931 20.2679 21.4471 20.2679 18.8524H19.1429C19.1429 21.9534 21.7417 24.5243 24.9614 24.5243L24.9603 23.4931ZM24.9614 24.5243C28.1823 24.5243 30.7788 21.9534 30.7788 18.8524H29.6538C29.6538 21.4471 27.4927 23.4931 24.9603 23.4931L24.9614 24.5243Z" fill="#E45A3B"/>
</g>
<path d="M21.2523 7.92822H3.39294C2.77162 7.92822 2.26794 8.38993 2.26794 8.95947V27.6189C2.26794 28.1885 2.77162 28.6502 3.39294 28.6502H21.2523C21.8736 28.6502 22.3773 28.1885 22.3773 27.6189V8.95947C22.3773 8.38993 21.8736 7.92822 21.2523 7.92822Z" fill="url(#paint2_linear_11_21)"/>
<path d="M21.2523 7.92822H3.39294C2.77162 7.92822 2.26794 8.38993 2.26794 8.95947V27.6189C2.26794 28.1885 2.77162 28.6502 3.39294 28.6502H21.2523C21.8736 28.6502 22.3773 28.1885 22.3773 27.6189V8.95947C22.3773 8.38993 21.8736 7.92822 21.2523 7.92822Z" fill="url(#paint3_linear_11_21)"/>
<path d="M21.2523 7.92822H3.39294C2.77162 7.92822 2.26794 8.38993 2.26794 8.95947V27.6189C2.26794 28.1885 2.77162 28.6502 3.39294 28.6502H21.2523C21.8736 28.6502 22.3773 28.1885 22.3773 27.6189V8.95947C22.3773 8.38993 21.8736 7.92822 21.2523 7.92822Z" fill="url(#paint4_linear_11_21)"/>
<path d="M21.2523 7.92822H3.39294C2.77162 7.92822 2.26794 8.38993 2.26794 8.95947V27.6189C2.26794 28.1885 2.77162 28.6502 3.39294 28.6502H21.2523C21.8736 28.6502 22.3773 28.1885 22.3773 27.6189V8.95947C22.3773 8.38993 21.8736 7.92822 21.2523 7.92822Z" fill="url(#paint5_linear_11_21)"/>
<path d="M2.26794 16.6939V14.4045H22.3762V16.6939H2.26794Z" fill="#3A92EA"/>
<path d="M2.26794 16.6939V14.4045H22.3762V16.6939H2.26794Z" fill="url(#paint6_linear_11_21)"/>
<path d="M2.26794 16.6939V14.4045H22.3762V16.6939H2.26794Z" fill="url(#paint7_linear_11_21)"/>
<path d="M2.26794 16.6939V14.4045H22.3762V16.6939H2.26794Z" fill="url(#paint8_linear_11_21)"/>
<path d="M2.26794 21.4954V19.207H22.3762V21.4954H2.26794Z" fill="#3A91ED"/>
<path d="M2.26794 21.4954V19.207H22.3762V21.4954H2.26794Z" fill="url(#paint9_linear_11_21)"/>
<path d="M2.26794 21.4954V19.207H22.3762V21.4954H2.26794Z" fill="url(#paint10_linear_11_21)"/>
<path d="M2.26794 21.4954V19.207H22.3762V21.4954H2.26794Z" fill="url(#paint11_linear_11_21)"/>
<path d="M2.26794 26.2969V24.0085H22.3762V26.2969H2.26794Z" fill="#3A8FF0"/>
<path d="M2.26794 26.2969V24.0085H22.3762V26.2969H2.26794Z" fill="url(#paint12_linear_11_21)"/>
<path d="M2.26794 26.2969V24.0085H22.3762V26.2969H2.26794Z" fill="url(#paint13_linear_11_21)"/>
<path d="M2.26794 26.2969V24.0085H22.3762V26.2969H2.26794Z" fill="url(#paint14_linear_11_21)"/>
<g filter="url(#filter2_f_11_21)">
<path d="M17.4194 8.50781V11.7305" stroke="#4EB7F5" stroke-width="0.75" stroke-linecap="round"/>
</g>
<g filter="url(#filter3_f_11_21)">
<path d="M6.09973 8.50781V11.7305" stroke="#4EB7F5" stroke-width="0.75" stroke-linecap="round"/>
</g>
<g filter="url(#filter4_i_11_21)">
<path d="M17.4374 11.1829C17.4374 11.3197 17.4967 11.4508 17.6022 11.5475C17.7077 11.6442 17.8507 11.6986 17.9999 11.6986C18.1491 11.6986 18.2922 11.6442 18.3977 11.5475C18.5032 11.4508 18.5624 11.3197 18.5624 11.1829H17.4374ZM6.08167 11.1829C6.08167 11.3197 6.14093 11.4508 6.24642 11.5475C6.35191 11.6442 6.49498 11.6986 6.64417 11.6986C6.79335 11.6986 6.93642 11.6442 7.04191 11.5475C7.1474 11.4508 7.20667 11.3197 7.20667 11.1829H6.08167ZM17.4374 7.50757V11.1829H18.5624V7.50757H17.4374ZM7.20667 11.1829V7.50757H6.08167V11.1829H7.20667ZM12.322 2.86694C15.1255 2.86694 17.4374 4.9511 17.4374 7.50757H18.5624C18.5624 4.36947 15.733 1.83569 12.322 1.83569V2.86694ZM12.322 1.83569C8.91217 1.83569 6.08167 4.36947 6.08167 7.50757H7.20667C7.20667 4.9511 9.51967 2.86694 12.322 2.86694V1.83569Z" fill="url(#paint15_radial_11_21)"/>
</g>
<g filter="url(#filter5_f_11_21)">
<path d="M18.0528 11.1829C18.0528 11.2171 18.0676 11.2499 18.094 11.274C18.1204 11.2982 18.1561 11.3118 18.1934 11.3118C18.2307 11.3118 18.2665 11.2982 18.2929 11.274C18.3192 11.2499 18.3341 11.2171 18.3341 11.1829H18.0528ZM6.50357 11.1829C6.50357 11.2171 6.51838 11.2499 6.54475 11.274C6.57113 11.2982 6.6069 11.3118 6.64419 11.3118C6.68149 11.3118 6.71726 11.2982 6.74363 11.274C6.77 11.2499 6.78482 11.2171 6.78482 11.1829H6.50357ZM18.0528 7.50751V11.1829H18.3341V7.50751H18.0528ZM6.78482 11.1829L6.78369 7.50751H6.50244V11.1819L6.78482 11.1829ZM12.4177 2.4812C15.5036 2.4812 18.0517 4.73551 18.0517 7.50854H18.3329C18.3329 4.58598 15.6509 2.22339 12.4177 2.22339V2.4812ZM12.4177 2.22339C9.18444 2.22339 6.50244 4.58495 6.50244 7.50751H6.78369C6.78369 4.73448 9.33182 2.4812 12.4177 2.4812V2.22339Z" fill="url(#paint16_linear_11_21)"/>
</g>
<defs>
<filter id="filter0_i_11_21" x="16.6117" y="13.7117" width="17.4087" height="17.1289" filterUnits="userSpaceOnUse" color-interpolation-filters="sRGB">
<feFlood flood-opacity="0" result="BackgroundImageFix"/>
<feBlend mode="normal" in="SourceGraphic" in2="BackgroundImageFix" result="shape"/>
<feColorMatrix in="SourceAlpha" type="matrix" values="0 0 0 0 0 0 0 0 0 0 0 0 0 0 0 0 0 0 127 0" result="hardAlpha"/>
<feOffset dx="0.5" dy="-0.5"/>
<feGaussianBlur stdDeviation="0.5"/>
<feComposite in2="hardAlpha" operator="arithmetic" k2="-1" k3="1"/>
<feColorMatrix type="matrix" values="0 0 0 0 0.905882 0 0 0 0 0.556863 0 0 0 0 0.329412 0 0 0 1 0"/>
<feBlend mode="normal" in2="shape" result="effect1_innerShadow_11_21"/>
</filter>
<filter id="filter1_i_11_21" x="19.1429" y="16.1289" width="11.8359" height="8.39551" filterUnits="userSpaceOnUse" color-interpolation-filters="sRGB">
<feFlood flood-opacity="0" result="BackgroundImageFix"/>
<feBlend mode="normal" in="SourceGraphic" in2="BackgroundImageFix" result="shape"/>
<feColorMatrix in="SourceAlpha" type="matrix" values="0 0 0 0 0 0 0 0 0 0 0 0 0 0 0 0 0 0 127 0" result="hardAlpha"/>
<feOffset dx="0.2"/>
<feGaussianBlur stdDeviation="0.2"/>
<feComposite in2="hardAlpha" operator="arithmetic" k2="-1" k3="1"/>
<feColorMatrix type="matrix" values="0 0 0 0 0.862745 0 0 0 0 0.321569 0 0 0 0 0.109804 0 0 0 1 0"/>
<feBlend mode="normal" in2="shape" result="effect1_innerShadow_11_21"/>
</filter>
<filter id="filter2_f_11_21" x="16.0444" y="7.13281" width="2.75" height="5.97266" filterUnits="userSpaceOnUse" color-interpolation-filters="sRGB">
<feFlood flood-opacity="0" result="BackgroundImageFix"/>
<feBlend mode="normal" in="SourceGraphic" in2="BackgroundImageFix" result="shape"/>
<feGaussianBlur stdDeviation="0.5" result="effect1_foregroundBlur_11_21"/>
</filter>
<filter id="filter3_f_11_21" x="4.72473" y="7.13281" width="2.75" height="5.97266" filterUnits="userSpaceOnUse" color-interpolation-filters="sRGB">
<feFlood flood-opacity="0" result="BackgroundImageFix"/>
<feBlend mode="normal" in="SourceGraphic" in2="BackgroundImageFix" result="shape"/>
<feGaussianBlur stdDeviation="0.5" result="effect1_foregroundBlur_11_21"/>
</filter>
<filter id="filter4_i_11_21" x="6.08167" y="1.73569" width="12.4807" height="9.96279" filterUnits="userSpaceOnUse" color-interpolation-filters="sRGB">
<feFlood flood-opacity="0" result="BackgroundImageFix"/>
<feBlend mode="normal" in="SourceGraphic" in2="BackgroundImageFix" result="shape"/>
<feColorMatrix in="SourceAlpha" type="matrix" values="0 0 0 0 0 0 0 0 0 0 0 0 0 0 0 0 0 0 127 0" result="hardAlpha"/>
<feOffset dy="-0.1"/>
<feGaussianBlur stdDeviation="0.2"/>
<feComposite in2="hardAlpha" operator="arithmetic" k2="-1" k3="1"/>
<feColorMatrix type="matrix" values="0 0 0 0 0.164706 0 0 0 0 0.560784 0 0 0 0 0.886275 0 0 0 1 0"/>
<feBlend mode="normal" in2="shape" result="effect1_innerShadow_11_21"/>
</filter>
<filter id="filter5_f_11_21" x="6.25244" y="1.97339" width="12.3317" height="9.58838" filterUnits="userSpaceOnUse" color-interpolation-filters="sRGB">
<feFlood flood-opacity="0" result="BackgroundImageFix"/>
<feBlend mode="normal" in="SourceGraphic" in2="BackgroundImageFix" result="shape"/>
<feGaussianBlur stdDeviation="0.125" result="effect1_foregroundBlur_11_21"/>
</filter>
<linearGradient id="paint0_linear_11_21" x1="20.8653" y1="17.5962" x2="25.8501" y2="26.9961" gradientUnits="userSpaceOnUse">
<stop stop-color="#FEC243"/>
<stop offset="1" stop-color="#FDB046"/>
</linearGradient>
<radialGradient id="paint1_radial_11_21" cx="0" cy="0" r="1" gradientUnits="userSpaceOnUse" gradientTransform="translate(17.6239 27.9916) rotate(49.6401) scale(3.73988 5.17783)">
<stop offset="0.225" stop-color="#D38D3C"/>
<stop offset="1" stop-color="#D38D3C" stop-opacity="0"/>
</radialGradient>
<linearGradient id="paint2_linear_11_21" x1="12.3221" y1="7.92822" x2="12.3221" y2="28.6491" gradientUnits="userSpaceOnUse">
<stop stop-color="#59C1FA"/>
<stop offset="1" stop-color="#49A8FF"/>
</linearGradient>
<linearGradient id="paint3_linear_11_21" x1="2.26794" y1="26.2649" x2="4.23669" y2="26.2649" gradientUnits="userSpaceOnUse">
<stop stop-color="#419CE0"/>
<stop offset="1" stop-color="#449FEE" stop-opacity="0"/>
</linearGradient>
<linearGradient id="paint4_linear_11_21" x1="11.9351" y1="29.1328" x2="11.9351" y2="24.6211" gradientUnits="userSpaceOnUse">
<stop stop-color="#4676F8"/>
<stop offset="1" stop-color="#439AFF" stop-opacity="0"/>
</linearGradient>
<linearGradient id="paint5_linear_11_21" x1="12.3221" y1="7.92822" x2="12.3221" y2="10.1516" gradientUnits="userSpaceOnUse">
<stop offset="0.159" stop-color="#61C9E8"/>
<stop offset="1" stop-color="#61C9E8" stop-opacity="0"/>
</linearGradient>
<linearGradient id="paint6_linear_11_21" x1="2.26794" y1="15.9844" x2="4.34132" y2="15.9844" gradientUnits="userSpaceOnUse">
<stop offset="0.196" stop-color="#2A81CD"/>
<stop offset="1" stop-color="#2A81CD" stop-opacity="0"/>
</linearGradient>
<linearGradient id="paint7_linear_11_21" x1="22.3773" y1="15.9844" x2="20.4086" y2="15.9844" gradientUnits="userSpaceOnUse">
<stop stop-color="#51A9F3"/>
<stop offset="1" stop-color="#51A9F3" stop-opacity="0"/>
</linearGradient>
<linearGradient id="paint8_linear_11_21" x1="22.3773" y1="16.6939" x2="21.4627" y2="16.6939" gradientUnits="userSpaceOnUse">
<stop stop-color="#3C97EE"/>
<stop offset="1" stop-color="#3C97EE" stop-opacity="0"/>
</linearGradient>
<linearGradient id="paint9_linear_11_21" x1="2.26794" y1="20.7859" x2="4.34132" y2="20.7859" gradientUnits="userSpaceOnUse">
<stop offset="0.196" stop-color="#2A81CD"/>
<stop offset="1" stop-color="#2A81CD" stop-opacity="0"/>
</linearGradient>
<linearGradient id="paint10_linear_11_21" x1="22.3773" y1="20.7859" x2="20.4086" y2="20.7859" gradientUnits="userSpaceOnUse">
<stop stop-color="#51A9F3"/>
<stop offset="1" stop-color="#51A9F3" stop-opacity="0"/>
</linearGradient>
<linearGradient id="paint11_linear_11_21" x1="22.3773" y1="21.4954" x2="21.4627" y2="21.4954" gradientUnits="userSpaceOnUse">
<stop stop-color="#3C97EE"/>
<stop offset="1" stop-color="#3C97EE" stop-opacity="0"/>
</linearGradient>
<linearGradient id="paint12_linear_11_21" x1="2.26794" y1="25.5884" x2="4.34132" y2="25.5884" gradientUnits="userSpaceOnUse">
<stop offset="0.196" stop-color="#2A81CD"/>
<stop offset="1" stop-color="#2A81CD" stop-opacity="0"/>
</linearGradient>
<linearGradient id="paint13_linear_11_21" x1="22.3773" y1="25.5884" x2="20.4086" y2="25.5884" gradientUnits="userSpaceOnUse">
<stop stop-color="#51A9F3"/>
<stop offset="1" stop-color="#51A9F3" stop-opacity="0"/>
</linearGradient>
<linearGradient id="paint14_linear_11_21" x1="22.3773" y1="26.2969" x2="21.4627" y2="26.2969" gradientUnits="userSpaceOnUse">
<stop stop-color="#3C97EE"/>
<stop offset="1" stop-color="#3C97EE" stop-opacity="0"/>
</linearGradient>
<radialGradient id="paint15_radial_11_21" cx="0" cy="0" r="1" gradientUnits="userSpaceOnUse" gradientTransform="translate(9.54442 2.86797) rotate(71.5287) scale(8.76606 11.0924)">
<stop stop-color="#2C94E3"/>
<stop offset="1" stop-color="#2C9CEB"/>
</radialGradient>
<linearGradient id="paint16_linear_11_21" x1="13.9927" y1="11.6985" x2="13.9927" y2="6.28445" gradientUnits="userSpaceOnUse">
<stop stop-color="#53A9F2"/>
<stop offset="1" stop-color="#53A9F2" stop-opacity="0"/>
</linearGradient>
</defs>
</svg>
