<svg width="32" height="24" viewBox="0 0 32 24" fill="none" xmlns="http://www.w3.org/2000/svg">
<g clip-path="url(#clip0_7_895)">
<mask id="mask0_7_895" style="mask-type:luminance" maskUnits="userSpaceOnUse" x="0" y="0" width="32" height="24">
<path d="M32 0H0V24H32V0Z" fill="white"/>
</mask>
<g mask="url(#mask0_7_895)">
<path d="M32 0H0V24H32V0Z" fill="#EEEEEE"/>
<path fill-rule="evenodd" clip-rule="evenodd" d="M0 0V24H32V0H0Z" fill="#FFC800"/>
<mask id="mask1_7_895" style="mask-type:luminance" maskUnits="userSpaceOnUse" x="0" y="0" width="32" height="24">
<path fill-rule="evenodd" clip-rule="evenodd" d="M0 0V24H32V0H0Z" fill="white"/>
</mask>
<g mask="url(#mask1_7_895)">
<path fill-rule="evenodd" clip-rule="evenodd" d="M0 0V6H32V0H0Z" fill="#FF4B4B"/>
<path fill-rule="evenodd" clip-rule="evenodd" d="M0 18V24H32V18H0Z" fill="#FF4B4B"/>
<path d="M6.12806 9.12799H5.00806V14.952H6.12806V9.12799Z" fill="#EEEEEE"/>
<path fill-rule="evenodd" clip-rule="evenodd" d="M6.57606 8.12H4.56006V8.67999H4.89606V9.12799H6.24006V8.67999H6.57606V8.12Z" fill="#EEEEEE"/>
<path fill-rule="evenodd" clip-rule="evenodd" d="M6.24006 15.288H6.57606V15.848H4.56006V15.288H4.89606V14.84H6.24006V15.288Z" fill="#EEEEEE"/>
<path fill-rule="evenodd" clip-rule="evenodd" d="M5.56818 8.232C5.81191 8.232 5.83668 8.14023 5.98048 8.00315C6.09213 7.89671 6.35218 7.76471 6.35218 7.616C6.35218 7.2758 6.00117 7 5.56818 7C5.13519 7 4.78418 7.2758 4.78418 7.616C4.78418 7.78167 4.96326 7.89244 5.09866 8.00315C5.24132 8.11979 5.34604 8.232 5.56818 8.232Z" fill="#EEEEEE"/>
<path fill-rule="evenodd" clip-rule="evenodd" d="M4.56006 15.848H6.57606V16.744C6.57606 16.744 6.32406 16.632 6.07206 16.632C5.82006 16.632 5.56806 16.744 5.56806 16.744C5.56806 16.744 5.31606 16.632 5.06406 16.632C4.81206 16.632 4.56006 16.744 4.56006 16.744V15.848Z" fill="#EEEEEE"/>
<mask id="mask2_7_895" style="mask-type:luminance" maskUnits="userSpaceOnUse" x="4" y="15" width="3" height="2">
<path fill-rule="evenodd" clip-rule="evenodd" d="M4.56006 15.848H6.57606V16.744C6.57606 16.744 6.32406 16.632 6.07206 16.632C5.82006 16.632 5.56806 16.744 5.56806 16.744C5.56806 16.744 5.31606 16.632 5.06406 16.632C4.81206 16.632 4.56006 16.744 4.56006 16.744V15.848Z" fill="white"/>
</mask>
<g mask="url(#mask2_7_895)">
<path d="M4.54181 16.5679L4.4978 16.4606C4.67938 16.3798 4.86161 16.3393 5.04411 16.3393C5.16202 16.3393 5.22359 16.3557 5.32826 16.4023C5.4202 16.4432 5.46786 16.4559 5.56841 16.4559C5.66896 16.4559 5.71662 16.4432 5.80856 16.4023C5.91323 16.3557 5.9748 16.3393 6.09271 16.3393C6.27521 16.3393 6.45744 16.3798 6.63902 16.4606L6.59501 16.5679C6.42706 16.4932 6.25975 16.4559 6.09271 16.4559C5.99216 16.4559 5.9445 16.4687 5.85256 16.5096C5.74789 16.5562 5.68632 16.5726 5.56841 16.5726C5.4505 16.5726 5.38893 16.5562 5.28426 16.5096C5.19232 16.4687 5.14466 16.4559 5.04411 16.4559C4.87707 16.4559 4.70976 16.4932 4.54181 16.5679Z" fill="#EEEEEE"/>
<path d="M4.54181 16.2319L4.4978 16.1246C4.67938 16.0438 4.86161 16.0033 5.04411 16.0033C5.16202 16.0033 5.22359 16.0197 5.32826 16.0663C5.4202 16.1072 5.46786 16.1199 5.56841 16.1199C5.66896 16.1199 5.71662 16.1072 5.80856 16.0663C5.91323 16.0197 5.9748 16.0033 6.09271 16.0033C6.27521 16.0033 6.45744 16.0438 6.63902 16.1246L6.59501 16.2319C6.42706 16.1572 6.25975 16.1199 6.09271 16.1199C5.99216 16.1199 5.9445 16.1327 5.85256 16.1736C5.74789 16.2202 5.68632 16.2366 5.56841 16.2366C5.4505 16.2366 5.38893 16.2202 5.28426 16.1736C5.19232 16.1327 5.14466 16.1199 5.04411 16.1199C4.87707 16.1199 4.70976 16.1572 4.54181 16.2319Z" fill="#EEEEEE"/>
</g>
<path d="M17.1039 9.12799H15.9839V14.952H17.1039V9.12799Z" fill="#EEEEEE"/>
<path fill-rule="evenodd" clip-rule="evenodd" d="M17.5519 8.12H15.5359V8.67999H15.8719V9.12799H17.2159V8.67999H17.5519V8.12Z" fill="#EEEEEE"/>
<path fill-rule="evenodd" clip-rule="evenodd" d="M17.2159 15.288H17.5519V15.848H15.5359V15.288H15.8719V14.84H17.2159V15.288Z" fill="#EEEEEE"/>
<path fill-rule="evenodd" clip-rule="evenodd" d="M16.544 8.232C16.7877 8.232 16.8125 8.14023 16.9563 8.00315C17.068 7.89671 17.328 7.76471 17.328 7.616C17.328 7.2758 16.977 7 16.544 7C16.111 7 15.76 7.2758 15.76 7.616C15.76 7.78167 15.9391 7.89244 16.0745 8.00315C16.2171 8.11979 16.3219 8.232 16.544 8.232Z" fill="#EEEEEE"/>
<path fill-rule="evenodd" clip-rule="evenodd" d="M15.5359 15.848H17.5519V16.744C17.5519 16.744 17.2999 16.632 17.0479 16.632C16.7959 16.632 16.5439 16.744 16.5439 16.744C16.5439 16.744 16.2919 16.632 16.0399 16.632C15.7879 16.632 15.5359 16.744 15.5359 16.744V15.848Z" fill="#EEEEEE"/>
<mask id="mask3_7_895" style="mask-type:luminance" maskUnits="userSpaceOnUse" x="15" y="15" width="3" height="2">
<path fill-rule="evenodd" clip-rule="evenodd" d="M15.5359 15.848H17.5519V16.744C17.5519 16.744 17.2999 16.632 17.0479 16.632C16.7959 16.632 16.5439 16.744 16.5439 16.744C16.5439 16.744 16.2919 16.632 16.0399 16.632C15.7879 16.632 15.5359 16.744 15.5359 16.744V15.848Z" fill="white"/>
</mask>
<g mask="url(#mask3_7_895)">
<path d="M15.5176 16.5679L15.4736 16.4606C15.6551 16.3798 15.8374 16.3393 16.0199 16.3393C16.1378 16.3393 16.1993 16.3557 16.304 16.4023C16.396 16.4432 16.4436 16.4559 16.5442 16.4559C16.6447 16.4559 16.6924 16.4432 16.7843 16.4023C16.889 16.3557 16.9506 16.3393 17.0685 16.3393C17.251 16.3393 17.4332 16.3798 17.6148 16.4606L17.5708 16.5679C17.4028 16.4932 17.2355 16.4559 17.0685 16.4559C16.9679 16.4559 16.9203 16.4687 16.8283 16.5096C16.7236 16.5562 16.6621 16.5726 16.5442 16.5726C16.4263 16.5726 16.3647 16.5562 16.26 16.5096C16.1681 16.4687 16.1204 16.4559 16.0199 16.4559C15.8528 16.4559 15.6855 16.4932 15.5176 16.5679Z" fill="#EEEEEE"/>
<path d="M15.5176 16.2319L15.4736 16.1246C15.6551 16.0438 15.8374 16.0033 16.0199 16.0033C16.1378 16.0033 16.1993 16.0197 16.304 16.0663C16.396 16.1072 16.4436 16.1199 16.5442 16.1199C16.6447 16.1199 16.6924 16.1072 16.7843 16.0663C16.889 16.0197 16.9506 16.0033 17.0685 16.0033C17.251 16.0033 17.4332 16.0438 17.6148 16.1246L17.5708 16.2319C17.4028 16.1572 17.2355 16.1199 17.0685 16.1199C16.9679 16.1199 16.9203 16.1327 16.8283 16.1736C16.7236 16.2202 16.6621 16.2366 16.5442 16.2366C16.4263 16.2366 16.3647 16.2202 16.26 16.1736C16.1681 16.1327 16.1204 16.1199 16.0199 16.1199C15.8528 16.1199 15.6855 16.1572 15.5176 16.2319Z" fill="#EEEEEE"/>
</g>
<path d="M5.92341 11.256L6.254 11.3244V11.8172C5.9019 12.0981 5.00806 12.5716 5.00806 12.5716V11.256H5.92341Z" fill="#EEEEEE"/>
<path d="M16.3145 11.256L15.9839 11.3244V11.8172C16.336 12.0981 17.2299 12.5716 17.2299 12.5716V11.256H16.3145Z" fill="#EEEEEE"/>
<path opacity="0.3" fill-rule="evenodd" clip-rule="evenodd" d="M7.47217 8H14.7521V14.5408C14.7521 14.5408 14.2114 16.736 11.1121 16.736C8.01294 16.736 7.47217 14.483 7.47217 14.483V8Z" fill="#FF4B4B"/>
<mask id="mask4_7_895" style="mask-type:luminance" maskUnits="userSpaceOnUse" x="7" y="8" width="8" height="9">
<path fill-rule="evenodd" clip-rule="evenodd" d="M7.47217 8H14.7521V14.5408C14.7521 14.5408 14.2114 16.736 11.1121 16.736C8.01294 16.736 7.47217 14.483 7.47217 14.483V8Z" fill="white"/>
</mask>
<g mask="url(#mask4_7_895)">
<path d="M11.1682 12.032H7.47217V16.4H11.1682V12.032Z" fill="#FF4B4B"/>
<path d="M8.36817 12.256H7.92017V16.4H8.36817V12.256Z" fill="#FF4B4B"/>
<path d="M9.93604 12.256H9.48804V16.4H9.93604V12.256Z" fill="#FF4B4B"/>
<path d="M9.1521 12.256H8.7041V16.4H9.1521V12.256Z" fill="#FF4B4B"/>
<path d="M10.7202 12.256H10.2722V16.4H10.7202V12.256Z" fill="#FF4B4B"/>
<path d="M11.1682 7.888H7.47217V12.144H11.1682V7.888Z" fill="#FF4B4B"/>
<path d="M14.7522 11.92H11.0562V16.176H14.7522V11.92Z" fill="#FF4B4B"/>
<path d="M14.9762 8H11.0562V12.144H14.9762V8Z" fill="#FF4B4B"/>
<path fill-rule="evenodd" clip-rule="evenodd" d="M9.0401 8.336H9.3761V9.26519H9.6001V8.80059H9.9361V9.26519H10.2721V9.84589H9.9361V10.8913H10.2721V11.472H8.2561V10.8913H8.5921V9.84589H8.2561V9.26519H8.4801V8.80059H8.8161V9.26519H9.0401V8.336Z" fill="#FF4B4B"/>
<path d="M12.979 8.53103L13.2083 8.28549L13.6899 8.73531L13.4605 8.98089L12.979 8.53103Z" fill="#FF4B4B"/>
<path fill-rule="evenodd" clip-rule="evenodd" d="M14.3603 14.8761V12.424H11.5603V14.8556L11.5647 14.8745C11.7064 15.4785 12.1891 15.784 12.9603 15.784C13.7306 15.784 14.2133 15.4863 14.3556 14.8955L14.3603 14.8761ZM12.9603 15.448C12.3416 15.448 12.0037 15.2396 11.8963 14.8159V12.76H14.0243V14.8354C13.9171 15.2453 13.5792 15.448 12.9603 15.448Z" fill="#FF4B4B"/>
<path fill-rule="evenodd" clip-rule="evenodd" d="M13.0758 12.6289H12.8425V13.7406L11.9227 12.7402L11.7578 12.8918L12.5896 13.7965H11.8359V14.1325H12.4149H12.6079L11.7578 15.0572L11.9227 15.2088L12.8425 14.2084V15.5078H13.0758V14.3253L13.8881 15.2088L14.053 15.0572L13.2028 14.1325H14.1518V13.7965H13.2212L14.053 12.8918L13.8881 12.7402L13.0758 13.6237V12.6289Z" fill="#FF4B4B"/>
<path fill-rule="evenodd" clip-rule="evenodd" d="M13.4829 16.1787C13.4829 16.1787 11.1107 16.3652 11.1107 14.8352C11.1107 14.8352 11.0881 16.1787 8.61108 16.1787V17.3865H13.4829V16.1787Z" fill="#FF4B4B"/>
<path fill-rule="evenodd" clip-rule="evenodd" d="M11.1122 12.928C11.5761 12.928 11.9522 12.5268 11.9522 12.032C11.9522 11.5371 11.5761 11.136 11.1122 11.136C10.6483 11.136 10.2722 11.5371 10.2722 12.032C10.2722 12.5268 10.6483 12.928 11.1122 12.928Z" fill="#FF4B4B" stroke="#FF4B4B" stroke-width="1.16667"/>
</g>
</g>
</g>
</g>
<defs>
<clipPath id="clip0_7_895">
<rect width="32" height="24" rx="3" fill="white"/>
</clipPath>
</defs>
</svg>
