<svg width="791" height="633" viewBox="0 0 791 633" fill="none" xmlns="http://www.w3.org/2000/svg">
<path d="M347.006 483H327.894C319.965 483 316 479.035 316 471.106V318.962C316 310.987 319.965 307 327.894 307H480.106C488.035 307 492 310.987 492 318.962V471.106C492 479.035 488.035 483 480.106 483H460.994C458.015 473.054 454.073 463.796 449.169 455.225C436.702 433.362 421.646 422.431 404 422.431C386.354 422.431 371.275 433.362 358.762 455.225C353.904 463.796 349.985 473.054 347.006 483Z" fill="#365A66"/>
<path d="M347.006 483C349.986 473.054 353.904 463.796 358.763 455.225C371.275 433.363 386.354 422.431 404 422.431C421.646 422.431 436.702 433.363 449.169 455.225C454.073 463.796 458.015 473.054 460.994 483H347.006Z" fill="#E5F3F7"/>
<path d="M469.312 375.337L469.519 376.094C472.544 387.369 472.887 397.567 470.55 406.687C468.167 415.854 463.789 421.285 457.419 422.981C451.048 424.677 444.517 422.179 437.825 415.487C431.179 408.75 426.344 399.744 423.319 388.469L423.112 387.712C421.6 381.525 422.471 375.658 425.725 370.112C429.025 364.337 433.86 360.602 440.231 358.906C446.602 357.21 452.675 358.012 458.45 361.312C463.95 364.567 467.571 369.242 469.312 375.337ZM385.025 387.781L384.819 388.537C381.794 399.812 376.981 408.796 370.381 415.487C363.735 422.225 357.204 424.746 350.787 423.05C344.417 421.308 340.039 415.877 337.656 406.756C335.227 397.59 335.525 387.369 338.55 376.094L338.756 375.337C340.544 369.242 344.21 364.59 349.756 361.381C355.531 358.035 361.604 357.233 367.975 358.975C374.392 360.671 379.227 364.383 382.481 370.112C385.735 375.704 386.583 381.594 385.025 387.781Z" fill="#F2F9FB"/>
<path d="M377.669 386.475V386.75V387.438C377.394 389.821 376.156 391.86 373.956 393.556C371.527 395.435 368.617 396.375 365.225 396.375C361.787 396.375 358.854 395.435 356.425 393.556C354.225 391.86 353.033 389.821 352.85 387.438L352.781 386.75V386.475V386.338C352.827 381.708 354.042 377.744 356.425 374.444C358.854 371.144 361.787 369.494 365.225 369.494C368.617 369.494 371.527 371.144 373.956 374.444C376.385 377.744 377.623 381.708 377.669 386.338V386.475ZM455.906 386.475V386.75V387.438C455.677 389.821 454.44 391.86 452.194 393.556C449.765 395.435 446.854 396.375 443.463 396.375C440.025 396.375 437.092 395.435 434.662 393.556C432.508 391.86 431.317 389.821 431.088 387.438L431.019 386.75V386.475V386.338C431.065 381.708 432.279 377.744 434.662 374.444C437.092 371.144 440.025 369.494 443.463 369.494C446.854 369.494 449.765 371.144 452.194 374.444C454.623 377.744 455.86 381.708 455.906 386.338V386.475Z" fill="#333333"/>
<path d="M426 417.756C425.725 421.01 423.594 423.806 419.606 426.144C415.344 428.665 410.165 429.925 404.069 429.925C397.973 429.925 392.771 428.665 388.463 426.144C384.521 423.806 382.39 421.01 382.069 417.756L382 416.312C382 410.217 384.154 405.015 388.463 400.706C392.771 396.444 397.973 394.312 404.069 394.312C410.165 394.312 415.344 396.444 419.606 400.706C423.915 405.015 426.069 410.217 426.069 416.312L426 417.756Z" fill="#FF9900"/>
<path d="M209.89 261.637C205.541 253.275 205.118 244.91 208.619 236.544C228.81 235.382 241.844 239.493 247.723 248.875C249.967 252.487 251.032 256.032 250.919 259.507L243.738 264.402C233.813 256.322 222.53 255.401 209.89 261.637Z" fill="#6FC4A9"/>
<path d="M166.808 309.065C171.672 296.59 169.147 285.307 159.232 275.214C165.758 268.56 173.552 265.494 182.614 266.017C190.019 284.796 190.181 298.434 183.098 306.93L173.759 313.348C170.095 313.619 167.778 312.191 166.808 309.065Z" fill="#6FC4A9"/>
<path d="M191.731 197.184L192.285 196.826C209.024 188.557 224.06 190.765 237.393 203.451C238.536 204.546 239.086 205.805 239.044 207.228C239.144 208.735 238.666 210.09 237.611 211.294C236.577 212.397 235.318 212.948 233.834 212.946C232.288 212.984 230.963 212.486 229.86 211.453C221.076 203.247 213.352 203.04 206.686 210.83L191.731 197.184ZM129.264 237.488L135.533 256.739C125.688 259.601 122.694 266.724 126.549 278.109C127.036 279.54 126.975 280.932 126.364 282.285C125.693 283.679 124.642 284.619 123.211 285.106C121.74 285.531 120.308 285.408 118.915 284.736C117.602 284.188 116.692 283.116 116.188 281.523C110.164 264.208 114.368 249.629 128.802 237.786L129.264 237.488Z" fill="#6FC4A9"/>
<path d="M145.512 126.361C158.282 129.115 168.205 135.975 175.28 146.941L223.454 221.606C227.787 228.321 227.602 236.554 222.901 246.306C218.159 255.996 210.306 264.378 199.34 271.453C188.375 278.528 177.5 282.229 166.717 282.555C155.894 282.82 148.317 279.595 143.984 272.88L95.8103 198.215C88.7352 187.25 86.5747 175.382 89.3286 162.611C92.0826 149.841 98.9425 139.918 109.908 132.843C120.874 125.768 132.742 123.607 145.512 126.361Z" fill="#6FC4A9"/>
<path d="M184.036 171.262C185.626 173.726 186.053 176.417 185.318 179.334C184.724 182.335 183.195 184.63 180.731 186.22C178.143 187.89 175.329 188.397 172.289 187.741C169.451 187.129 167.237 185.591 165.647 183.127C164.057 180.662 163.528 177.95 164.061 174.989C164.756 172.01 166.398 169.686 168.985 168.016C171.449 166.426 174.151 165.948 177.09 166.582C180.131 167.238 182.446 168.798 184.036 171.262ZM171.019 207.275C173.73 205.526 175.594 203.276 176.611 200.526C177.124 198.886 177.269 197.353 177.047 195.926L177.315 194.314C177.649 193.749 178.141 193.431 178.793 193.36L180.498 193.568L181.452 195.047C181.786 197.187 181.559 199.472 180.77 201.9C179.494 205.602 177.039 208.626 173.404 210.971C169.708 213.356 165.91 214.367 162.011 214.003C159.289 213.84 157.105 213.025 155.459 211.556C155.018 211.143 154.781 210.641 154.75 210.051C154.616 209.439 154.757 208.912 155.17 208.471L156.86 207.642L158.348 208.122C159.433 208.992 160.808 209.501 162.473 209.648C165.337 209.894 168.186 209.103 171.019 207.275ZM136.273 189.122C138.737 187.532 141.439 187.054 144.378 187.688C147.419 188.344 149.734 189.904 151.324 192.368C152.914 194.832 153.341 197.523 152.606 200.44C152.012 203.441 150.483 205.736 148.019 207.326C145.431 208.996 142.617 209.503 139.577 208.847C136.739 208.235 134.525 206.697 132.935 204.233C131.345 201.768 130.816 199.056 131.349 196.095C132.044 193.116 133.686 190.792 136.273 189.122Z" fill="#347E67"/>
<path d="M200.88 223.738C201.251 222.015 202.176 220.676 203.655 219.722C205.133 218.768 206.734 218.477 208.457 218.849C210.18 219.22 211.519 220.145 212.473 221.624C213.427 223.102 213.718 224.703 213.346 226.426C212.975 228.149 212.05 229.488 210.571 230.442C209.093 231.395 207.492 231.687 205.769 231.315C204.046 230.943 202.707 230.018 201.753 228.54C200.799 227.061 200.508 225.461 200.88 223.738ZM199.501 260.749C197.468 262.061 195.286 262.465 192.955 261.962C190.624 261.46 188.802 260.192 187.491 258.159C186.179 256.126 185.774 253.944 186.277 251.613C186.78 249.282 188.048 247.46 190.081 246.149C192.114 244.837 194.296 244.432 196.627 244.935C198.958 245.438 200.779 246.706 202.091 248.739C203.403 250.772 203.807 252.954 203.304 255.285C202.802 257.616 201.534 259.437 199.501 260.749ZM206.046 243.307C205.371 242.26 205.164 241.128 205.426 239.912C205.689 238.696 206.343 237.75 207.391 237.074C208.438 236.398 209.57 236.192 210.786 236.454C212.002 236.716 212.948 237.371 213.624 238.418C214.299 239.466 214.506 240.597 214.244 241.814C213.982 243.03 213.327 243.976 212.28 244.652C211.232 245.327 210.101 245.534 208.884 245.272C207.668 245.009 206.722 244.355 206.046 243.307Z" fill="#8BCFBA" fill-opacity="0.501961"/>
<path d="M152.243 125.029C146.629 123.765 141.419 124.683 136.614 127.784C131.809 130.884 128.825 135.252 127.663 140.888C126.399 146.502 127.317 151.712 130.418 156.517C133.518 161.322 137.886 164.306 143.522 165.468C149.096 166.671 154.286 165.721 159.091 162.621C163.896 159.521 166.9 155.183 168.102 149.609C169.304 144.035 168.355 138.845 165.255 134.04C162.155 129.235 157.817 126.231 152.243 125.029ZM198.506 190.849C194.864 207.247 186.02 219.976 171.974 229.039C157.928 238.101 142.746 240.873 126.429 237.354C109.948 233.853 97.1565 225.049 88.0543 210.941C78.9918 196.895 76.2817 181.674 79.9239 165.277C83.4031 148.897 92.1657 136.176 106.212 127.114C120.257 118.051 135.521 115.271 152.001 118.772C168.319 122.291 181.009 131.073 190.072 145.119C199.174 159.227 201.985 174.47 198.506 190.849Z" fill="white" fill-opacity="0.2"/>
<path d="M152.243 125.029C157.817 126.231 162.155 129.234 165.255 134.04C168.355 138.845 169.304 144.035 168.102 149.609C166.9 155.183 163.896 159.521 159.091 162.621C154.286 165.721 149.096 166.67 143.522 165.468C137.886 164.306 133.518 161.322 130.418 156.517C127.317 151.712 126.399 146.502 127.663 140.888C128.825 135.252 131.809 130.884 136.614 127.784C141.419 124.683 146.629 123.765 152.243 125.029Z" fill="white" fill-opacity="0.301961"/>
<path d="M199.312 139.157C210.084 155.852 213.413 173.858 209.3 193.177C205.024 212.513 194.569 227.548 177.936 238.279C161.303 249.011 143.358 252.301 124.101 248.148C104.681 244.013 89.5851 233.598 78.8135 216.903C68.0817 200.27 64.8538 182.285 69.1298 162.949C73.2429 143.63 83.6161 128.605 100.249 117.873C116.883 107.141 134.909 103.843 154.329 107.978C173.586 112.131 188.58 122.524 199.312 139.157ZM198.506 190.849C201.985 174.47 199.174 159.227 190.072 145.119C181.009 131.073 168.319 122.291 152.001 118.772C135.521 115.271 120.257 118.051 106.212 127.114C92.1656 136.176 83.4031 148.897 79.9238 165.276C76.2816 181.674 78.9918 196.895 88.0542 210.941C97.1564 225.049 109.948 233.853 126.429 237.354C142.746 240.873 157.928 238.101 171.974 229.039C186.02 219.976 194.864 207.246 198.506 190.849Z" fill="#E5F3F7"/>
<path d="M431.913 137.548L429.172 174H412.217L407.749 137.548C407.479 133.962 408.359 130.841 410.389 128.185C412.894 125.33 415.973 123.936 419.628 124.002C423.419 123.936 426.498 125.33 428.867 128.185C431.304 130.841 432.319 133.962 431.913 137.548ZM369.169 128.185C370.523 130.841 370.557 133.962 369.271 137.548L354.955 174H338L345.107 137.548C345.716 133.962 347.577 130.841 350.691 128.185C353.804 125.33 357.29 123.936 361.148 124.002C364.736 123.936 367.409 125.33 369.169 128.185Z" fill="#F19CB7"/>
<path d="M439.419 118.234L430.069 153.043C428.172 160.235 422.412 165.257 412.791 168.106C403.238 170.821 392.634 170.617 380.981 167.496C369.327 164.374 360.045 159.218 353.134 152.025C346.223 144.833 343.716 137.64 345.613 130.447L354.963 95.6385C358.08 83.9676 364.855 75.0787 375.289 68.9719C385.791 62.9329 396.869 61.474 408.523 64.5953C420.176 67.7166 428.985 74.5359 434.947 85.0532C441.045 95.5027 442.535 106.563 439.419 118.234Z" fill="#F19CB7"/>
<path d="M434.965 127.196L435.577 127.502C449.438 137.849 453.956 151.191 449.132 167.528C448.724 168.89 447.943 169.911 446.788 170.592L442.915 171C441.556 170.66 440.537 169.877 439.857 168.652C439.246 167.358 439.11 166.031 439.45 164.669C442.507 153.982 439.382 147.549 430.073 145.371L434.965 127.196ZM358.628 108L353.736 126.175C344.632 123.452 338.754 127.502 336.104 138.326C335.765 139.687 334.983 140.742 333.76 141.491L329.887 142.002C328.528 141.661 327.475 140.913 326.728 139.755C326.049 138.53 325.845 137.237 326.116 135.875C330.125 119.334 340.759 110.076 358.017 108.102L358.628 108Z" fill="#F19CB7"/>
<path d="M394.619 140.461C393.959 139.335 393.827 138.077 394.223 136.687C394.553 135.362 395.313 134.369 396.502 133.707C397.625 132.979 398.88 132.813 400.268 133.21C401.589 133.541 402.613 134.303 403.339 135.495C404 136.687 404.165 137.945 403.835 139.269C403.438 140.66 402.646 141.653 401.457 142.249C400.334 142.977 399.111 143.176 397.79 142.845C396.403 142.447 395.346 141.653 394.619 140.461Z" fill="#A55B72"/>
<path d="M421.471 112.67L420.561 115.105C419.279 117.877 417.155 120.075 414.187 121.698C410.411 123.93 406.566 124.539 402.654 123.524C398.405 122.375 395.168 119.872 392.942 116.018C391.324 113.177 390.717 110.235 391.121 107.192L391.526 104.656C392.605 100.598 394.932 97.4194 398.507 95.12C402.351 92.9558 406.398 92.4486 410.647 93.5983C414.558 94.6128 417.593 97.0136 419.752 100.801C421.977 104.656 422.551 108.612 421.471 112.67ZM416.413 111.148C417.155 108.443 416.784 105.805 415.3 103.236C413.884 100.733 411.894 99.1101 409.331 98.3662C406.431 97.6222 403.7 97.9604 401.137 99.3806C398.709 100.936 397.124 103.066 396.382 105.772C395.708 108.477 396.045 110.979 397.394 113.279C398.878 115.848 401.069 117.505 403.97 118.249C406.532 118.993 409.062 118.621 411.557 117.133C414.12 115.848 415.739 113.853 416.413 111.148Z" fill="white"/>
<path d="M416.624 111.034C415.941 113.918 414.302 116.044 411.707 117.414C409.18 119 406.62 119.397 404.024 118.604C401.088 117.811 398.868 116.044 397.366 113.305C396 110.854 395.659 108.186 396.341 105.303C397.093 102.419 398.698 100.148 401.156 98.4902C403.751 96.9763 406.517 96.6159 409.454 97.4089C412.049 98.2019 414.063 99.9321 415.498 102.599C417 105.339 417.376 108.15 416.624 111.034Z" fill="#A55B72"/>
<path d="M436.725 61.4252C433.005 57.6344 428.507 55.7389 423.232 55.7389C417.956 55.7389 413.459 57.6344 409.739 61.4252C405.952 65.1484 404.058 69.6501 404.058 74.9302C404.058 80.2104 405.952 84.712 409.739 88.4352C413.459 92.1584 417.956 94.02 423.232 94.02C428.507 94.02 433.005 92.1584 436.725 88.4352C440.444 84.712 442.304 80.2104 442.304 74.9302C442.304 69.6501 440.444 65.1484 436.725 61.4252ZM439.667 135.652C428.642 146.551 415.42 152 400 152C384.58 152 371.425 146.551 360.536 135.652C349.512 124.685 344 111.451 344 95.9493C344 80.515 349.512 67.3485 360.536 56.4497C371.425 45.4832 384.58 40 400 40C415.42 40 428.642 45.4832 439.667 56.4497C450.556 67.3485 456 80.515 456 95.9493C456 111.451 450.556 124.685 439.667 135.652Z" fill="white" fill-opacity="0.2"/>
<path d="M436.456 61.6446C440.152 65.3404 442 69.809 442 75.0504C442 80.2918 440.152 84.7604 436.456 88.4562C432.76 92.1521 428.292 94 423.05 94C417.809 94 413.34 92.1521 409.645 88.4562C405.881 84.7604 404 80.2918 404 75.0504C404 69.809 405.881 65.3404 409.645 61.6446C413.34 57.8816 417.809 56 423.05 56C428.292 56 432.76 57.8816 436.456 61.6446Z" fill="white" fill-opacity="0.301961"/>
<path d="M439.58 135.559C450.445 124.619 455.877 111.415 455.877 95.9494C455.877 80.5511 450.445 67.4152 439.58 56.5418C428.58 45.6009 415.386 40.1305 400 40.1305C384.613 40.1305 371.488 45.6009 360.623 56.5418C349.623 67.4152 344.123 80.5511 344.123 95.9494C344.123 111.415 349.623 124.619 360.623 135.559C371.488 146.433 384.613 151.87 400 151.87C415.386 151.87 428.58 146.433 439.58 135.559ZM466 95.9494C466 114.252 459.589 129.853 446.767 142.752C433.81 155.584 418.221 162 400 162C381.779 162 366.258 155.584 353.436 142.752C340.479 129.853 334 114.252 334 95.9494C334 77.7145 340.479 62.1812 353.436 49.3492C366.258 36.4498 381.779 30 400 30C418.221 30 433.81 36.4498 446.767 49.3492C459.589 62.1812 466 77.7145 466 95.9494Z" fill="#E5F3F7"/>
<path d="M621.956 259.678L629.868 304.306L650.387 302.209L651.198 256.69C651.074 252.233 649.616 248.493 646.823 245.467C643.433 242.255 639.53 240.916 635.115 241.45C630.52 241.837 626.968 243.938 624.461 247.753C621.847 251.33 621.012 255.305 621.956 259.678ZM706.783 239.34C702.655 236.203 698.261 234.914 693.6 235.473C689.251 235.835 686.191 237.886 684.421 241.625C683.118 245.069 683.47 248.923 685.478 253.187L707.398 296.383L727.917 294.287L714.721 250.199C713.532 245.851 710.886 242.231 706.783 239.34Z" fill="#FFCC00"/>
<path d="M691.181 136.752C679.828 127.493 666.876 123.608 652.325 125.095C637.775 126.582 625.876 133.007 616.63 144.37C607.384 155.734 603.505 168.698 604.993 183.264L611.867 250.53C612.779 259.45 618.707 266.534 629.65 271.782C640.586 276.949 653.329 278.789 667.879 277.302C682.43 275.815 694.537 271.436 704.202 264.164C713.858 256.81 718.23 248.674 717.318 239.754L710.444 172.488C708.956 157.922 702.535 146.01 691.181 136.752Z" fill="#FFCC00"/>
<path d="M619.059 207.906L618.342 208.228C599.58 217.877 591.501 233.001 594.106 253.601C594.365 255.32 595.131 256.696 596.403 257.73C597.758 258.756 599.301 259.18 601.033 259.003C602.765 258.826 604.145 258.061 605.173 256.709C606.202 255.357 606.627 253.817 606.451 252.09C604.825 238.622 609.801 231.463 621.38 230.613L619.059 207.906ZM710.938 221.461C722.45 219.952 728.771 225.956 729.903 239.474C730.079 241.202 730.808 242.624 732.088 243.74C733.369 244.856 734.875 245.325 736.607 245.149C738.339 244.972 739.764 244.244 740.884 242.966C741.92 241.696 742.392 240.193 742.298 238.457C740.682 217.756 729.711 204.579 709.385 198.925L708.618 198.754L710.938 221.461Z" fill="#FFCC00"/>
<path d="M631.626 214.166C635.101 213.811 637.951 212.239 640.175 209.45C642.25 206.848 643.115 203.856 642.769 200.476L642.542 199.475L617.964 201.986L618.068 203C618.413 206.38 619.948 209.127 622.673 211.239C625.331 213.529 628.316 214.505 631.626 214.166ZM638.415 219.236L637.055 220.656L637.262 222.684C638.489 224.864 640.314 226.769 642.738 228.4C646.499 230.833 650.82 231.801 655.702 231.302C660.668 230.794 664.745 228.969 667.936 225.825C670.229 223.712 671.581 221.397 671.992 218.879C672.089 218.186 671.941 217.56 671.55 217.003C671.232 216.352 670.734 215.976 670.055 215.875L667.97 216.344L666.996 217.852C666.655 219.424 665.8 220.877 664.431 222.213C662.073 224.503 658.991 225.842 655.184 226.231C651.543 226.604 648.295 225.911 645.44 224.153L641.785 220.3C641.55 219.641 641.089 219.219 640.401 219.033C639.705 218.763 639.043 218.83 638.415 219.236ZM662.009 198.51C662.354 201.89 663.889 204.636 666.614 206.749C669.273 209.038 672.257 210.014 675.567 209.676C679.043 209.321 681.892 207.749 684.116 204.96C686.191 202.357 687.056 199.366 686.71 195.986L686.483 194.984L661.905 197.496L662.009 198.51Z" fill="#AD8A00"/>
<path d="M650.699 109.178C632.071 111.081 616.786 119.434 604.842 134.238C593.054 148.941 588.126 165.752 590.059 184.671C592.001 203.672 600.236 219.222 614.763 231.32C629.445 243.319 646.1 248.366 664.728 246.463C683.356 244.559 698.564 236.256 710.352 221.552C722.296 206.749 727.297 189.847 725.355 170.845C723.421 151.926 715.114 136.468 700.431 124.469C685.904 112.371 669.326 107.274 650.699 109.178ZM641.618 136.642C646.659 140.738 649.511 146.022 650.172 152.494C650.834 158.967 649.11 164.718 645.001 169.75C640.974 174.773 635.774 177.61 629.401 178.261C623.029 178.912 617.363 177.185 612.403 173.081C607.443 168.976 604.632 163.688 603.971 157.216C603.309 150.744 604.992 144.996 609.019 139.973C613.038 134.867 618.234 131.989 624.606 131.338C630.979 130.686 636.649 132.454 641.618 136.642Z" fill="white" fill-opacity="0.2"/>
<path d="M641.522 137.237C636.502 133.072 630.767 131.319 624.318 131.978C617.868 132.637 612.607 135.514 608.532 140.609C604.45 145.621 602.738 151.351 603.397 157.801C604.056 164.25 606.891 169.516 611.904 173.599C616.916 177.681 622.646 179.393 629.096 178.734C635.545 178.075 640.811 175.239 644.894 170.227C649.059 165.207 650.812 159.472 650.153 153.023C649.494 146.573 646.617 141.312 641.522 137.237Z" fill="white" fill-opacity="0.301961"/>
<path d="M708.831 115.903C691.577 101.851 671.826 95.9612 649.58 98.2345C627.334 100.508 609.101 110.279 594.881 127.547C580.818 144.717 574.916 164.365 577.177 186.491C579.447 208.698 589.209 226.828 606.463 240.88C623.873 254.834 643.702 260.674 665.948 258.4C688.194 256.127 706.349 246.406 720.412 229.236C734.632 211.967 740.607 192.229 738.338 170.021C736.077 147.896 726.241 129.856 708.831 115.903ZM650.836 110.527C669.622 108.607 686.326 113.607 700.948 125.527C715.726 137.348 724.07 152.6 725.979 171.284C727.897 190.05 722.819 206.757 710.746 221.405C698.828 235.954 683.477 244.189 664.692 246.108C645.906 248.028 629.124 243.077 614.346 231.256C599.724 219.336 591.454 203.993 589.536 185.228C587.627 166.544 592.631 149.927 604.548 135.378C616.621 120.73 632.051 112.446 650.836 110.527Z" fill="#E5F3F7"/>
<path d="M128.865 428C140.229 428 149.933 432.022 157.977 440.067C166.021 448.112 170.043 457.816 170.043 469.181V506.914C179.556 508.638 186.993 514.448 192.356 524.344C193.059 525.493 193.186 526.674 192.739 527.887C192.42 529.164 191.654 530.154 190.441 530.856L186.898 531.239C185.621 530.92 184.663 530.154 184.025 528.941C180.067 521.918 175.406 518.981 170.043 520.13V538.901C170.043 545.86 166.021 551.798 157.977 556.714L153.572 559.108C152.87 570.792 149.358 578.645 143.038 582.667C139.91 584.71 136.75 585.668 133.558 585.54C130.429 584.774 128.897 582.923 128.961 579.986C133.175 574.942 135.281 569.515 135.281 563.705L128.865 563.992H126.663C128.195 570.76 127.588 576.474 124.843 581.135C122.928 584.264 120.63 586.466 117.948 587.743C114.501 588.573 112.298 587.392 111.34 584.2C113.575 573.346 109.84 564.248 100.136 556.905L99.7531 556.714C91.709 551.798 87.687 545.86 87.687 538.901V522.045C80.2812 517.64 74.0247 519.939 68.9174 528.941C68.2789 530.09 67.3532 530.856 66.1402 531.239L62.5011 530.856C61.352 530.154 60.5858 529.164 60.2028 527.887C59.8197 526.674 59.9793 525.461 60.6816 524.248C66.8743 512.82 75.8761 506.85 87.687 506.339V469.181C87.687 457.816 91.709 448.112 99.7531 440.067C107.797 432.022 117.501 428 128.865 428Z" fill="#E0D1AF"/>
<path d="M146.228 483.854C146.356 483.351 146.675 483.006 147.186 482.817C147.697 482.566 148.209 482.566 148.72 482.817L149.87 483.76V485.269C149.103 486.966 147.857 488.506 146.132 489.889C143.449 491.963 140.222 493 136.452 493C132.618 493 129.36 491.963 126.676 489.889C124.76 488.506 123.545 486.903 123.034 485.08C122.907 484.577 122.97 484.106 123.226 483.666C123.418 483.163 123.769 482.849 124.28 482.723L125.91 482.911L126.772 483.949C127.155 485.08 127.922 486.086 129.072 486.966C131.053 488.474 133.513 489.229 136.452 489.229C139.263 489.229 141.691 488.474 143.736 486.966L146.228 483.854ZM153.512 460L154.949 460.094C156.866 460.346 158.591 461.226 160.125 462.734C162.042 464.62 163 466.82 163 469.334C163 471.849 162.042 473.986 160.125 475.746C158.336 477.569 156.227 478.511 153.799 478.574H153.512H153.224H119.488H119.201C116.709 478.511 114.537 477.569 112.684 475.746C110.895 473.986 110 471.849 110 469.334C110 466.82 110.895 464.62 112.684 462.734C114.409 461.1 116.421 460.22 118.721 460.094L119.201 460H119.488V460.094H153.224V460H153.512Z" fill="#AF9F7A"/>
<path d="M166.688 430.422C176.896 440.639 182 452.983 182 467.452C182 481.985 176.896 494.393 166.688 504.674C156.352 514.891 143.957 520 129.5 520C115.044 520 102.711 514.891 92.5028 504.674C82.1676 494.393 77 481.985 77 467.452C77 452.983 82.1676 440.639 92.5028 430.422C102.711 420.141 115.044 415 129.5 415C143.957 415 156.352 420.141 166.688 430.422ZM169.16 447.747C169.16 442.797 167.417 438.577 163.929 435.086C160.442 431.532 156.226 429.755 151.28 429.755C146.334 429.755 142.118 431.532 138.63 435.086C135.08 438.577 133.304 442.797 133.304 447.747C133.304 452.697 135.08 456.918 138.63 460.408C142.118 463.898 146.334 465.644 151.28 465.644C156.226 465.644 160.442 463.898 163.929 460.408C167.417 456.918 169.16 452.697 169.16 447.747Z" fill="white" fill-opacity="0.2"/>
<path d="M169 447.048C169 452.013 167.249 456.247 163.748 459.748C160.247 463.249 156.013 465 151.048 465C146.082 465 141.849 463.249 138.347 459.748C134.782 456.247 133 452.013 133 447.048C133 442.082 134.782 437.849 138.347 434.347C141.849 430.782 146.082 429 151.048 429C156.013 429 160.247 430.782 163.748 434.347C167.249 437.849 169 442.082 169 447.048Z" fill="white" fill-opacity="0.301961"/>
<path d="M166.981 430.134C156.564 419.774 144.071 414.593 129.5 414.593C114.93 414.593 102.5 419.774 92.2109 430.134C81.7943 440.431 76.5859 452.87 76.5859 467.452C76.5859 482.098 81.7943 494.601 92.2109 504.962C102.5 515.258 114.93 520.407 129.5 520.407C144.071 520.407 156.564 515.258 166.981 504.962C177.27 494.601 182.414 482.098 182.414 467.452C182.414 452.87 177.27 440.431 166.981 430.134ZM129.5 405C146.755 405 161.517 411.108 173.787 423.323C185.929 435.475 192 450.184 192 467.452C192 484.784 185.929 499.557 173.787 511.773C161.517 523.924 146.755 530 129.5 530C112.245 530 97.5471 523.924 85.405 511.773C73.135 499.557 67 484.784 67 467.452C67 450.184 73.135 435.475 85.405 423.323C97.5471 411.108 112.245 405 129.5 405Z" fill="#E5F3F7"/>
<path d="M727.997 556.089V594H710.793L703.478 556.089C702.86 552.36 703.512 549.115 705.435 546.353C707.702 543.383 710.69 541.933 714.398 542.002C718.245 541.933 721.507 543.383 724.186 546.353C726.795 549.115 728.066 552.36 727.997 556.089ZM682.565 546.353C684.488 549.115 685.14 552.36 684.522 556.089L677.207 594H660.003V556.089C659.934 552.36 661.205 549.115 663.814 546.353C666.493 543.383 669.755 541.933 673.602 542.002C677.31 541.933 680.298 543.383 682.565 546.353Z" fill="#8DB5E7"/>
<path d="M691.949 422.411V422.103L694 422L696.051 422.103V422.411C705.624 423.643 713.966 427.818 721.077 434.936C729.692 443.56 734 453.964 734 466.147V549.101C734 556.562 729.692 562.927 721.077 568.197C713.966 572.509 705.624 575.042 696.051 575.795V576H694H691.949V575.795C682.444 575.042 674.103 572.509 666.923 568.197C658.308 562.927 654 556.562 654 549.101V466.147C654 453.964 658.308 443.56 666.923 434.936C674.103 427.749 682.444 423.574 691.949 422.411Z" fill="#8DB5E7"/>
<path d="M730.647 534L731.263 534.208C747.488 540.643 755.396 552.545 754.985 569.914C754.916 571.367 754.403 572.578 753.444 573.547C752.418 574.516 751.185 575 749.748 575C748.31 575 747.112 574.481 746.153 573.443C745.195 572.405 744.716 571.159 744.716 569.706C744.921 558.358 740.232 552.822 730.647 553.099V534ZM658.353 534V553.099C648.768 552.822 644.079 558.358 644.284 569.706C644.284 571.159 643.805 572.405 642.847 573.443C641.888 574.481 640.69 575 639.252 575C637.815 575 636.582 574.516 635.556 573.547C634.597 572.578 634.084 571.367 634.015 569.914C633.604 552.545 641.512 540.643 657.737 534.208L658.353 534Z" fill="#8DB5E7"/>
<path d="M699.6 484.201C699.6 485.629 699.09 486.819 698.07 487.771C697.118 488.79 695.962 489.3 694.602 489.3C693.106 489.3 691.848 488.79 690.828 487.771C689.876 486.819 689.401 485.629 689.401 484.201C689.401 482.773 689.876 481.584 690.828 480.632C691.848 479.544 693.106 479 694.602 479C695.962 479 697.118 479.544 698.07 480.632C699.09 481.584 699.6 482.773 699.6 484.201ZM709.9 487.771C711.192 487.771 712.348 488.28 713.368 489.3C714.456 490.32 715 491.51 715 492.87C715 494.365 714.456 495.555 713.368 496.439C712.348 497.527 711.192 498.071 709.9 498.071C708.405 498.071 707.147 497.527 706.127 496.439C705.107 495.555 704.597 494.365 704.597 492.87C704.597 491.51 705.107 490.32 706.127 489.3C707.147 488.28 708.405 487.771 709.9 487.771ZM679.1 487.771C680.595 487.771 681.785 488.28 682.669 489.3C683.757 490.32 684.301 491.51 684.301 492.87C684.301 494.365 683.757 495.555 682.669 496.439C681.785 497.527 680.595 498.071 679.1 498.071C677.74 498.071 676.516 497.527 675.428 496.439C674.476 495.555 674 494.365 674 492.87C674 491.51 674.476 490.32 675.428 489.3C676.516 488.28 677.74 487.771 679.1 487.771ZM685.831 512.756L686.341 511.227C686.817 510.819 687.361 510.615 687.973 510.615H700.721C701.333 510.615 701.843 510.819 702.251 511.227L702.965 512.756L702.251 514.286C701.843 514.762 701.333 515 700.721 515H687.973C687.361 515 686.817 514.762 686.341 514.286L685.831 512.756Z" fill="#4F719D"/>
<path d="M653.832 432.597C664.915 421.532 678.304 416 694 416C709.696 416 723.154 421.532 734.375 432.597C745.458 443.593 751 456.877 751 472.449C751 488.089 745.458 501.442 734.375 512.506C723.154 523.502 709.696 529 694 529C678.304 529 664.915 523.502 653.832 512.506C642.611 501.442 637 488.089 637 472.449C637 456.877 642.611 443.593 653.832 432.597ZM698.13 451.242C698.13 456.569 700.058 461.111 703.913 464.868C707.699 468.624 712.277 470.502 717.647 470.502C723.016 470.502 727.594 468.624 731.38 464.868C735.167 461.111 737.06 456.569 737.06 451.242C737.06 445.915 735.167 441.373 731.38 437.617C727.594 433.792 723.016 431.879 717.647 431.879C712.277 431.879 707.699 433.792 703.913 437.617C700.058 441.373 698.13 445.915 698.13 451.242Z" fill="white" fill-opacity="0.2"/>
<path d="M698 451.05C698 445.809 699.931 441.34 703.793 437.645C707.586 433.882 712.172 432 717.552 432C722.931 432 727.517 433.882 731.31 437.645C735.103 441.34 737 445.809 737 451.05C737 456.292 735.103 460.76 731.31 464.456C727.517 468.152 722.931 470 717.552 470C712.172 470 707.586 468.152 703.793 464.456C699.931 460.76 698 456.292 698 451.05Z" fill="white" fill-opacity="0.301961"/>
<path d="M654.026 431.944C642.859 442.982 637.276 456.317 637.276 471.949C637.276 487.649 642.859 501.052 654.026 512.159C665.056 523.197 678.38 528.716 694 528.716C709.62 528.716 723.013 523.197 734.179 512.159C745.209 501.052 750.724 487.649 750.724 471.949C750.724 456.317 745.209 442.982 734.179 431.944C723.013 420.837 709.62 415.284 694 415.284C678.38 415.284 665.056 420.837 654.026 431.944ZM646.73 424.642C659.746 411.547 675.503 405 694 405C712.497 405 728.322 411.547 741.475 424.642C754.492 437.669 761 453.437 761 471.949C761 490.528 754.492 506.366 741.475 519.46C728.322 532.487 712.497 539 694 539C675.503 539 659.746 532.487 646.73 519.46C633.577 506.366 627 490.528 627 471.949C627 453.437 633.577 437.669 646.73 424.642Z" fill="#E5F3F7"/>
<path d="M660.741 539.741C661.902 538.58 663.302 538 664.941 538C666.58 538 667.979 538.58 669.14 539.741C670.301 540.901 670.881 542.3 670.881 543.939C670.881 545.577 670.301 546.976 669.14 548.137C667.979 549.297 666.58 549.877 664.941 549.877C663.302 549.877 661.902 549.297 660.741 548.137C659.58 546.976 659 545.577 659 543.939C659 542.3 659.58 540.901 660.741 539.741ZM683.173 565.645C681.602 564.075 680.817 562.164 680.817 559.911C680.817 557.659 681.602 555.747 683.173 554.177C684.743 552.608 686.655 551.823 688.908 551.823C691.162 551.823 693.074 552.608 694.644 554.177C696.215 555.747 697 557.659 697 559.911C697 562.164 696.215 564.075 694.644 565.645C693.074 567.215 691.162 568 688.908 568C686.655 568 684.743 567.215 683.173 565.645ZM673.749 560.628C672.93 561.447 671.94 561.857 670.779 561.857C669.618 561.857 668.628 561.447 667.809 560.628C666.989 559.809 666.58 558.819 666.58 557.659C666.58 556.498 666.989 555.509 667.809 554.689C668.628 553.87 669.618 553.461 670.779 553.461C671.94 553.461 672.93 553.87 673.749 554.689C674.569 555.509 674.978 556.498 674.978 557.659C674.978 558.819 674.569 559.809 673.749 560.628Z" fill="#A3C3EB" fill-opacity="0.501961"/>
</svg>
