<svg width="48" height="48" viewBox="0 0 48 48" fill="none" xmlns="http://www.w3.org/2000/svg">
<path d="M8.45625 48H3.24376C1.08126 48 0 46.9187 0 44.7562V3.2625C0 1.0875 1.08126 0 3.24376 0H44.7562C46.9187 0 48 1.0875 48 3.2625V44.7562C48 46.9187 46.9187 48 44.7562 48H39.5438C38.7313 45.2875 37.6562 42.7625 36.3187 40.425C32.9187 34.4625 28.8125 31.4812 24 31.4812C19.1875 31.4812 15.075 34.4625 11.6625 40.425C10.3375 42.7625 9.26875 45.2875 8.45625 48Z" fill="#365A66"/>
<path d="M8.45624 48C9.26874 45.2875 10.3375 42.7625 11.6625 40.425C15.075 34.4625 19.1875 31.4813 24 31.4813C28.8125 31.4813 32.9187 34.4625 36.3187 40.425C37.6562 42.7625 38.7312 45.2875 39.5437 48H8.45624Z" fill="#E5F3F7"/>
<path d="M41.8125 18.6375L41.8688 18.8438C42.6938 21.9188 42.7875 24.7 42.15 27.1875C41.5 29.6875 40.3062 31.1688 38.5687 31.6313C36.8312 32.0938 35.05 31.4125 33.225 29.5875C31.4125 27.75 30.0937 25.2938 29.2687 22.2188L29.2125 22.0125C28.8 20.325 29.0375 18.725 29.925 17.2125C30.825 15.6375 32.1437 14.6188 33.8812 14.1563C35.6187 13.6938 37.275 13.9125 38.85 14.8125C40.35 15.7 41.3375 16.975 41.8125 18.6375ZM18.825 22.0313L18.7687 22.2375C17.9437 25.3125 16.6312 27.7625 14.8312 29.5875C13.0187 31.425 11.2375 32.1125 9.48749 31.65C7.74999 31.175 6.55624 29.6938 5.90624 27.2063C5.24374 24.7063 5.325 21.9188 6.15 18.8438L6.20624 18.6375C6.69374 16.975 7.69374 15.7063 9.20624 14.8313C10.7812 13.9188 12.4375 13.7 14.175 14.175C15.925 14.6375 17.2437 15.65 18.1312 17.2125C19.0187 18.7375 19.25 20.3438 18.825 22.0313Z" fill="#F2F9FB"/>
<path d="M16.8187 21.675V21.75V21.9375C16.7437 22.5875 16.4063 23.1438 15.8063 23.6063C15.1438 24.1188 14.35 24.375 13.425 24.375C12.4875 24.375 11.6875 24.1188 11.025 23.6063C10.425 23.1438 10.1 22.5875 10.05 21.9375L10.0312 21.75V21.675V21.6375C10.0438 20.375 10.375 19.2938 11.025 18.3938C11.6875 17.4938 12.4875 17.0438 13.425 17.0438C14.35 17.0438 15.1438 17.4938 15.8063 18.3938C16.4688 19.2938 16.8062 20.375 16.8187 21.6375V21.675ZM38.1562 21.675V21.75V21.9375C38.0937 22.5875 37.7562 23.1438 37.1437 23.6063C36.4812 24.1188 35.6875 24.375 34.7625 24.375C33.825 24.375 33.025 24.1188 32.3625 23.6063C31.775 23.1438 31.45 22.5875 31.3875 21.9375L31.3688 21.75V21.675V21.6375C31.3813 20.375 31.7125 19.2938 32.3625 18.3938C33.025 17.4938 33.825 17.0438 34.7625 17.0438C35.6875 17.0438 36.4812 17.4938 37.1437 18.3938C37.8062 19.2938 38.1437 20.375 38.1562 21.6375V21.675Z" fill="#333333"/>
<path d="M30 30.2063C29.925 31.0938 29.3437 31.8562 28.2562 32.4937C27.0937 33.1812 25.6812 33.525 24.0187 33.525C22.3562 33.525 20.9375 33.1812 19.7625 32.4937C18.6875 31.8562 18.1062 31.0938 18.0187 30.2063L18 29.8125C18 28.15 18.5875 26.7312 19.7625 25.5562C20.9375 24.3937 22.3562 23.8125 24.0187 23.8125C25.6812 23.8125 27.0937 24.3937 28.2562 25.5562C29.4312 26.7312 30.0187 28.15 30.0187 29.8125L30 30.2063Z" fill="#FF9900"/>
</svg>
